<?xml version="1.0" encoding="utf-8"?>
<!-- Generator: Adobe Illustrator 23.0.1, SVG Export Plug-In . SVG Version: 6.00 Build 0)  -->
<svg version="1.1" id="Layer_1" xmlns="http://www.w3.org/2000/svg" xmlns:xlink="http://www.w3.org/1999/xlink" x="0px" y="0px"
	 viewBox="0 0 1200 1200" style="enable-background:new 0 0 1200 1200;" xml:space="preserve">
<style type="text/css">
	.st0{fill:#010101;}
</style>
<g>
	<g>
		<path class="st0" d="M591.75,909.75c-74.37,0-148.73,0.02-223.1-0.08c-3.39,0-4.37,0.8-4.32,4.27c0.21,13.75,0.14,27.5,0.07,41.24
			c-0.11,24.5-19.22,44.89-43.67,45.31c-31.61,0.55-63.25,0.55-94.86-0.01c-24.46-0.43-43.01-20.66-43.32-46.01
			c-0.17-13.62-0.08-27.25,0.01-40.87c0.02-2.64-0.32-3.82-3.53-4c-22.91-1.3-41.78-21.51-41.78-44.44c0-76.24,0-152.48,0-228.72
			c0-24.22,20.42-44.65,44.66-44.69c4.25-0.01,8.51-0.19,12.74,0.07c2.76,0.17,3.86-0.87,4.7-3.42
			c10.74-32.58,21.59-65.13,32.41-97.69C248,441.88,264,392.98,280.54,344.25c8.03-23.66,18.05-46.5,32.31-67.23
			c15.88-23.09,36.65-39.26,64.42-45.54c10.15-2.3,20.44-3.44,30.83-3.44c123.24-0.01,246.47-0.1,369.71,0.12
			c24.79,0.04,47.87,6.52,67.8,22.09c15.35,11.99,26.43,27.43,35.7,44.3c14.43,26.28,23.66,54.64,32.85,83
			c22.88,70.63,46.34,141.06,69.99,211.43c0.72,2.16,1.78,2.8,4,2.83c7.6,0.1,15.26-0.85,22.78,0.99
			c21.07,5.16,35.28,23.17,35.3,44.98c0.05,55.24,0.02,110.49,0.02,165.73c0,20,0.04,40-0.01,59.99
			c-0.07,24.93-18.01,44.27-42.92,46.14c-2.68,0.2-2.6,1.51-2.6,3.37c0.01,14.25,0.17,28.5-0.07,42.74
			c-0.34,20.82-13.96,38.13-33.79,43.46c-4.14,1.11-8.34,1.46-12.6,1.46c-29.5-0.01-58.99,0.02-88.49-0.01
			c-27.09-0.03-46.74-19.76-46.74-46.84c0-12.75,0-25.5,0-38.25c0-5.84,0-5.84-5.66-5.84C739.48,909.75,665.61,909.75,591.75,909.75
			z M296.2,591.75c1.62,0,2.74,0,3.85,0c195.33,0,390.66-0.01,585.99,0.08c3.69,0,3.96-1.17,2.64-3.97
			c-0.16-0.34-0.27-0.7-0.39-1.05c-21.91-65.32-44.25-130.5-65.71-195.97c-5.86-17.88-12.08-35.62-20.87-52.36
			c-6.99-13.31-16.58-19.95-32.73-19.88c-119.6,0.54-239.19,0.38-358.79,0.15c-11.78-0.02-19.65,4.78-25.47,14.47
			c-9.25,15.41-15.34,32.16-20.99,49.07c-20.66,61.81-40.14,124.01-60.06,186.06C301.21,576.02,298.77,583.7,296.2,591.75z
			 M806.2,750.7c-0.02,44.36,36.45,81.01,80.65,81.05c44.48,0.04,81.25-36.61,81.28-80.98c0.02-44.04-36.67-80.98-80.45-81.02
			C842.78,669.71,806.22,706.03,806.2,750.7z M215.25,750.6c0,44.37,36.5,81.11,80.6,81.15c44.52,0.04,81.34-36.55,81.4-80.87
			c0.05-44.17-36.71-81.11-80.75-81.13C251.94,669.73,215.25,706.24,215.25,750.6z"/>
	</g>
</g>
</svg>
